<?xml version="1.0" standalone="no"?>
<!DOCTYPE svg PUBLIC "-//W3C//DTD SVG 20010904//EN"
 "http://www.w3.org/TR/2001/REC-SVG-20010904/DTD/svg10.dtd">
<svg version="1.0" xmlns="http://www.w3.org/2000/svg"
 width="800.000000pt" height="800.000000pt" viewBox="0 0 800.000000 800.000000"
 preserveAspectRatio="xMidYMid meet">
<metadata>
Created by potrace 1.14, written by Peter Selinger 2001-2017
</metadata>
<g transform="translate(0.000000,800.000000) scale(0.100000,-0.100000)"
fill="#000000" stroke="none">
<path d="M1263 7988 c4 -12 -1 -21 -13 -28 -11 -6 -17 -17 -14 -24 3 -8 0 -17
-7 -22 -8 -4 -10 -3 -5 5 4 6 2 20 -5 29 -7 9 -10 14 -5 10 5 -4 15 -1 22 7
19 18 18 31 -1 15 -11 -9 -19 -9 -28 -2 -7 6 -17 8 -23 4 -14 -9 -27 -45 -14
-37 6 3 10 1 10 -4 0 -6 -5 -11 -11 -11 -6 0 -8 -7 -5 -17 4 -10 3 -14 -1 -9
-4 4 -9 17 -9 29 -3 41 -4 45 -21 51 -15 6 -15 4 2 -14 19 -21 8 -29 -13 -8
-7 7 -12 8 -12 4 0 -5 -8 -2 -17 5 -16 13 -17 12 -4 -3 15 -20 2 -24 -18 -5
-7 6 -12 8 -11 2 2 -5 1 -12 0 -15 -7 -19 -7 -40 0 -40 15 0 21 18 8 22 -9 3
-9 6 0 12 7 4 15 1 18 -9 8 -19 0 -28 -24 -30 -9 -1 -31 -9 -49 -18 -37 -20
-43 -21 -43 -7 0 6 3 9 8 9 16 -3 32 1 31 9 -3 19 2 32 12 32 8 0 8 -5 -1 -15
-7 -8 -8 -15 -2 -15 5 0 15 7 22 15 10 12 10 15 0 15 -9 0 -9 4 1 18 13 15 12
16 -3 4 -11 -9 -18 -10 -23 -2 -3 5 -12 10 -18 10 -9 0 -8 -3 1 -8 7 -5 10
-16 6 -25 -3 -9 -11 -14 -17 -10 -6 3 -7 1 -3 -5 4 -7 3 -12 -3 -12 -19 0 -21
19 -4 29 10 6 13 11 6 11 -6 0 -14 -4 -18 -10 -3 -5 -12 -7 -19 -4 -8 3 -17 1
-21 -5 -3 -7 0 -8 10 -5 11 5 14 2 9 -9 -3 -9 -12 -13 -20 -10 -8 3 -14 0 -14
-7 0 -8 -4 -9 -12 -3 -15 12 -48 24 -48 18 0 -2 13 -10 29 -18 21 -11 32 -12
40 -4 6 6 11 7 10 2 0 -6 -14 -21 -32 -35 -29 -22 -30 -22 -13 -2 20 23 9 31
-13 10 -11 -11 -13 -10 -8 4 4 12 2 15 -8 11 -11 -4 -12 -10 -4 -24 6 -13 6
-19 -1 -19 -5 0 -10 5 -10 11 0 6 -7 9 -15 5 -8 -3 -18 2 -23 11 -8 13 -10 13
-16 -3 -10 -25 -9 -27 9 -30 8 -1 12 2 9 8 -4 6 2 5 15 -1 11 -7 21 -14 21
-17 0 -3 -4 -3 -9 1 -5 3 -17 -2 -25 -11 -9 -9 -16 -11 -16 -4 0 6 -5 8 -12 4
-7 -4 -8 -3 -4 4 4 7 1 12 -9 12 -9 0 -13 -4 -10 -10 3 -5 2 -10 -4 -10 -5 0
-15 8 -20 18 -6 9 -11 12 -11 5 0 -7 -6 -11 -12 -9 -7 1 -10 1 -5 -1 22 -13 3
-21 -55 -24 -10 0 -21 -5 -24 -11 -5 -7 -2 -8 6 -3 8 5 19 1 28 -11 11 -15 13
-15 9 -2 -3 9 0 19 9 22 25 9 25 7 8 -19 -12 -19 -20 -23 -29 -15 -10 8 -20 4
-40 -16 -20 -20 -29 -24 -38 -15 -6 6 -15 11 -20 11 -5 0 -2 -6 5 -13 14 -14
60 -18 52 -5 -3 4 2 5 10 2 23 -9 8 -26 -16 -18 -17 5 -18 4 -8 -15 6 -12 7
-21 3 -20 -21 4 -33 -2 -27 -13 5 -7 3 -8 -6 -3 -10 6 -12 3 -7 -11 7 -18 6
-18 -6 -2 -8 10 -17 15 -20 11 -4 -3 -2 -12 4 -20 16 -18 1 -17 -17 2 -12 12
-12 15 -2 15 10 0 9 3 -2 11 -13 9 -12 10 2 5 10 -3 20 -1 23 5 4 5 11 6 17 3
7 -4 8 -2 4 4 -5 8 -2 10 8 6 9 -3 16 -1 16 6 0 6 -5 8 -10 5 -6 -3 -13 1 -16
10 -6 14 -9 13 -21 -5 -8 -12 -21 -19 -28 -16 -19 7 -27 -5 -14 -21 6 -7 8
-13 5 -13 -4 0 -2 -10 5 -21 7 -13 7 -19 1 -15 -6 3 -13 -3 -17 -14 -7 -22
-20 -26 -31 -8 -4 7 -3 8 4 4 8 -5 10 -1 6 11 -4 13 -3 15 4 5 7 -11 10 -11
15 2 4 10 -2 20 -16 28 -27 14 -58 18 -51 6 4 -5 12 -7 20 -4 7 3 16 1 19 -4
8 -13 -6 -41 -18 -33 -5 3 -7 1 -3 -5 3 -6 2 -13 -4 -17 -5 -3 -10 -1 -10 4 0
6 -5 11 -12 11 -9 0 -9 -3 0 -12 21 -21 13 -32 -10 -12 -13 10 -20 15 -16 10
4 -5 2 -16 -5 -25 -10 -14 -10 -14 5 -3 11 9 18 10 23 2 3 -6 10 -8 14 -6 4 3
8 -4 8 -15 1 -10 -3 -19 -8 -19 -6 0 -8 4 -5 9 12 19 -25 20 -41 1 -15 -18
-17 -18 -30 -2 -12 15 -12 14 -2 -8 7 -14 11 -27 10 -28 -2 -2 1 -7 5 -10 4
-4 4 -1 -1 7 -6 10 -4 12 5 6 9 -6 11 -4 5 5 -6 9 -4 11 5 5 9 -6 11 -4 5 5
-6 9 -4 11 5 5 8 -5 11 -4 6 3 -3 6 -1 14 5 18 7 4 9 3 5 -4 -3 -6 -2 -13 4
-17 7 -4 7 -12 0 -24 -5 -10 -6 -21 -3 -25 3 -3 1 -6 -6 -6 -8 0 -10 8 -5 23
l7 22 -22 -20 c-13 -11 -18 -21 -12 -23 6 -2 11 -11 11 -20 0 -13 -2 -12 -14
3 -8 11 -12 23 -10 27 3 5 0 8 -6 8 -6 0 -8 -10 -4 -25 4 -16 2 -25 -6 -25 -6
0 -8 -5 -5 -10 4 -6 12 -7 18 -4 8 4 7 2 -1 -7 -11 -12 -14 -12 -22 1 -5 8 -5
19 0 25 14 17 -3 35 -18 19 -9 -10 -10 -14 -1 -14 9 0 8 -5 -2 -17 -17 -22
-18 -55 -2 -60 13 -5 12 14 -2 37 -7 13 -6 13 7 2 25 -20 15 -46 -18 -48 -16
-1 -23 0 -16 3 10 4 8 9 -7 20 -21 14 -41 10 -41 -8 0 -5 5 -9 11 -9 5 0 7 5
4 10 -3 6 -2 10 3 10 19 0 21 -14 5 -32 -18 -20 -38 -25 -27 -6 5 7 3 8 -5 3
-9 -5 -10 -10 -2 -18 7 -7 15 -6 26 3 9 7 15 8 15 2 0 -6 -19 -24 -42 -41 -23
-17 -35 -31 -26 -31 9 0 19 7 22 16 3 8 10 13 15 10 5 -4 12 0 14 6 4 10 6 10
6 0 1 -7 -6 -15 -14 -18 -8 -4 -15 -13 -15 -21 0 -12 2 -12 16 1 8 9 21 16 27
15 9 0 9 -2 0 -5 -7 -3 -9 -13 -6 -22 4 -13 3 -14 -5 -3 -7 9 -12 10 -16 2 -4
-6 -13 -8 -19 -4 -18 11 -38 12 -31 2 3 -5 9 -7 14 -4 12 7 19 -20 9 -36 -5
-9 -3 -22 6 -35 14 -22 14 -22 -15 -7 -31 15 -42 30 -14 19 9 -3 12 -2 9 5 -4
5 -1 18 6 27 7 9 9 14 5 10 -5 -4 -16 -2 -25 5 -14 10 -14 10 -3 -4 10 -13 10
-19 -2 -28 -8 -7 -12 -20 -9 -28 4 -11 2 -14 -5 -9 -7 4 -12 3 -12 -3 0 -6 12
-9 26 -8 18 1 28 -3 29 -14 3 -15 -20 -19 -41 -7 -5 4 -16 3 -24 -3 -8 -5 -10
-9 -4 -9 11 0 12 -35 1 -46 -6 -7 -11 10 -8 29 0 4 -4 7 -9 7 -6 0 -10 -4 -10
-8 0 -12 29 -49 30 -37 0 6 5 3 10 -5 8 -11 9 -6 5 18 -3 19 -1 32 5 32 6 0 9
-4 5 -9 -3 -5 -1 -12 5 -16 13 -8 -4 -40 -22 -40 -7 0 -14 -4 -15 -8 -1 -5
-10 -15 -20 -23 -17 -13 -17 -14 2 -8 19 5 19 5 1 -10 -10 -8 -15 -20 -11 -26
5 -9 1 -10 -16 -6 -23 7 -23 6 -4 -6 22 -14 25 -25 11 -46 -5 -8 -4 -18 2 -24
7 -7 10 -4 9 8 -1 10 5 19 13 20 8 0 9 -1 2 -3 -18 -7 -15 -23 6 -24 14 0 14
-2 2 -7 -17 -8 -25 -32 -10 -32 5 0 10 -5 10 -11 0 -5 -4 -7 -10 -4 -5 3 -10
2 -10 -4 0 -6 -6 -8 -14 -5 -17 6 -31 -12 -16 -21 6 -4 7 -11 4 -17 -4 -6 -10
-5 -15 3 -6 10 -9 10 -9 2 0 -7 -7 -10 -18 -6 -9 3 -14 3 -10 -1 5 -7 27 -13
51 -15 5 -1 5 -6 1 -13 -4 -6 -3 -8 3 -5 11 7 11 36 -1 55 -4 6 -2 12 3 12 6
0 11 -5 11 -10 0 -6 3 -9 8 -8 4 2 7 -1 7 -7 0 -5 -3 -9 -6 -8 -14 5 -3 -58
11 -67 13 -8 12 -10 -2 -10 -10 0 -18 -4 -18 -10 0 -5 4 -10 9 -10 4 0 8 -15
7 -32 -1 -22 3 -32 11 -30 7 1 13 -3 13 -9 0 -6 -7 -9 -15 -5 -8 3 -19 -2 -24
-11 -8 -15 -10 -14 -22 5 -16 26 -26 28 -26 7 0 -8 2 -13 5 -11 5 6 42 -26 42
-37 0 -4 -4 -6 -9 -3 -4 3 -6 -6 -3 -21 3 -18 1 -24 -7 -19 -6 4 -11 2 -11 -3
0 -23 34 -5 36 19 1 8 5 24 10 34 6 15 4 17 -6 11 -8 -5 -11 -4 -6 3 4 6 13 9
22 5 12 -4 12 -8 2 -21 -11 -13 -10 -15 5 -9 11 4 16 3 12 -3 -3 -6 -13 -10
-21 -10 -8 0 -14 -5 -14 -11 0 -6 8 -8 17 -5 17 6 17 5 1 -7 -10 -8 -14 -18
-10 -22 4 -5 1 -5 -5 -1 -7 4 -13 2 -13 -3 0 -15 27 -14 33 2 3 6 3 -5 1 -26
-3 -29 -1 -36 8 -31 10 6 10 4 0 -8 -11 -14 -10 -18 6 -27 11 -6 22 -8 26 -6
3 3 4 2 1 -2 -10 -12 -47 -14 -39 -1 4 7 3 8 -4 4 -7 -4 -10 1 -7 14 2 11 0
18 -6 15 -13 -9 -11 9 3 23 12 12 1 17 -31 13 -7 -2 -10 2 -6 8 3 6 1 11 -5
11 -7 0 -10 -6 -7 -12 2 -7 12 -12 21 -12 9 1 16 -2 16 -7 0 -5 -5 -9 -11 -9
-8 0 -7 -6 2 -16 12 -15 11 -16 -11 -10 -21 6 -19 4 8 -13 18 -12 30 -26 27
-32 -4 -6 -12 -3 -21 8 -13 16 -13 15 -2 -10 10 -25 36 -33 31 -10 -1 5 8 9
20 10 12 0 16 -1 10 -4 -7 -3 -13 -9 -13 -14 0 -6 4 -8 8 -5 5 3 9 0 9 -7 0
-7 2 -16 3 -22 5 -21 -1 -35 -14 -35 -8 0 -18 -5 -22 -11 -4 -8 1 -9 17 -4 21
7 22 6 11 -8 -9 -11 -10 -17 -2 -22 6 -4 9 -14 6 -22 -3 -8 -2 -11 4 -8 5 3
16 -8 25 -25 9 -18 11 -30 5 -30 -6 0 -15 10 -20 23 l-9 22 0 -22 c-1 -13 7
-24 19 -28 23 -7 26 -21 8 -28 -7 -2 -11 -7 -8 -10 3 -3 16 3 30 15 14 11 20
17 13 14 -6 -4 -14 -3 -17 2 -2 4 4 9 16 9 12 1 18 -3 15 -11 -3 -7 4 -21 15
-30 11 -10 17 -24 14 -32 -3 -8 -1 -14 3 -14 5 0 12 6 14 13 4 9 6 9 6 0 1
-16 -16 -26 -31 -17 -21 13 -49 12 -38 -1 5 -7 6 -16 2 -20 -4 -5 -1 -5 6 -1
11 6 17 -5 13 -26 0 -5 3 -8 9 -8 5 0 10 6 10 13 0 8 3 8 8 1 4 -6 15 -13 24
-17 12 -4 15 -2 11 8 -3 8 -9 13 -13 10 -5 -3 -11 -1 -15 5 -4 6 -10 8 -15 5
-4 -3 -11 2 -14 11 -10 25 -2 26 22 4 12 -11 24 -20 27 -20 20 1 25 -1 24 -7
-3 -21 3 -34 31 -64 20 -22 26 -36 20 -44 -6 -7 -7 -15 -3 -18 3 -4 1 -7 -5
-7 -6 0 -18 7 -26 16 -9 8 -16 10 -16 4 0 -6 7 -13 15 -16 8 -4 12 -11 8 -17
-3 -5 -2 -7 4 -4 12 7 53 -20 53 -35 0 -7 -6 -6 -15 2 -8 7 -15 9 -15 4 0 -5
-4 -3 -9 4 -7 11 -9 11 -14 -1 -4 -10 1 -14 16 -13 14 1 21 -4 19 -13 -3 -12
0 -12 12 -2 18 15 15 57 -4 53 -6 -1 -8 3 -4 9 5 8 3 9 -5 4 -10 -6 -11 -3 -1
16 17 32 22 37 20 19 -4 -26 0 -41 8 -36 13 8 13 -55 0 -72 -7 -8 -13 -18 -13
-21 0 -3 -3 -5 -7 -4 -4 2 -5 -6 -3 -17 2 -11 -2 -26 -8 -33 -7 -7 -13 -19
-15 -27 -2 -8 -15 -40 -30 -70 -14 -30 -26 -57 -27 -60 -1 -4 -56 -149 -90
-235 -4 -11 -9 -24 -11 -30 -2 -5 -21 -71 -44 -145 -22 -74 -42 -144 -44 -155
-3 -11 -14 -59 -25 -107 -11 -47 -23 -99 -26 -115 -2 -15 -7 -37 -9 -48 -2
-11 -7 -40 -11 -65 -4 -25 -9 -53 -11 -64 -2 -10 -6 -44 -9 -75 -4 -31 -8 -63
-10 -71 -18 -69 -26 -613 -12 -770 13 -131 18 -184 23 -215 3 -16 7 -46 10
-65 2 -19 11 -71 20 -115 8 -44 18 -91 20 -105 17 -90 83 -328 125 -455 117
-347 280 -675 491 -989 24 -35 201 -270 212 -281 6 -7 31 -36 56 -66 45 -54
325 -337 390 -394 19 -17 58 -48 85 -70 28 -22 57 -48 66 -57 9 -10 21 -18 27
-18 6 0 12 -3 14 -8 8 -17 374 -272 392 -272 3 0 35 -18 71 -40 36 -22 67 -40
70 -40 2 0 27 -14 55 -30 28 -17 57 -30 65 -30 8 0 15 -4 15 -9 0 -5 10 -12
23 -16 30 -10 22 -6 120 -53 49 -23 90 -42 92 -42 1 0 20 -8 41 -17 22 -9 46
-18 54 -19 8 -2 23 -7 35 -13 19 -9 158 -60 180 -65 6 -2 17 -6 25 -9 56 -21
356 -99 430 -111 37 -6 67 -12 112 -22 15 -3 42 -7 60 -9 18 -1 51 -6 73 -9
153 -23 279 -30 525 -30 216 0 353 5 455 19 22 3 58 7 80 10 22 3 49 7 60 9
34 6 89 15 125 21 35 5 63 11 110 21 14 3 36 7 50 10 14 3 59 14 100 25 41 11
86 22 100 25 48 10 260 80 355 117 17 7 32 12 35 12 3 1 27 11 54 23 27 12 50
22 53 22 18 0 427 204 443 220 3 3 39 25 80 50 105 61 322 213 397 276 12 11
35 29 50 41 102 78 310 277 438 418 86 95 253 310 334 430 118 175 269 435
254 435 -5 0 -3 4 2 8 10 7 86 156 85 167 0 3 6 19 15 35 21 40 86 201 90 224
3 10 9 24 16 32 6 8 9 14 6 14 -3 0 4 24 14 53 63 166 148 529 174 742 4 28 8
60 10 73 27 165 27 763 0 911 -1 9 -6 42 -10 75 -8 70 -7 64 -41 256 -76 425
-282 942 -537 1350 -51 83 -192 286 -207 300 -3 3 -39 48 -81 100 -110 138
-341 379 -434 454 -13 10 -44 37 -67 58 -56 51 -327 254 -398 299 -30 18 -56
37 -58 41 -2 5 -9 8 -15 8 -6 0 -18 6 -26 14 -9 7 -41 27 -71 44 -30 16 -82
45 -115 64 -63 35 -312 158 -321 158 -3 0 -24 8 -47 18 -23 11 -78 33 -122 50
-126 48 -126 48 -155 55 -8 2 -22 7 -30 10 -56 24 -364 105 -465 122 -16 3
-41 8 -55 10 -24 5 -56 10 -125 20 -134 19 -162 23 -175 23 -8 0 -42 4 -75 8
-78 10 -566 11 -675 1 -114 -11 -211 -23 -260 -32 -14 -2 -41 -7 -60 -9 -19
-3 -57 -9 -85 -15 -27 -5 -53 -7 -57 -5 -3 2 -10 -1 -13 -7 -4 -5 -13 -8 -20
-5 -7 2 -16 2 -19 -2 -4 -3 -12 -7 -19 -8 -43 -8 -79 -16 -127 -29 -30 -9 -68
-18 -83 -21 -15 -3 -53 -14 -84 -25 -31 -10 -64 -19 -75 -19 -10 0 -18 -5 -18
-10 0 -6 -6 -10 -12 -9 -7 1 -20 -1 -28 -4 -8 -4 -49 -18 -90 -32 -41 -15 -88
-32 -105 -40 -114 -50 -157 -65 -168 -58 -5 3 -7 1 -4 -4 7 -11 -20 -27 -40
-24 -6 1 -14 -3 -18 -9 -3 -5 -11 -10 -17 -10 -6 0 -3 10 8 22 10 12 13 18 7
14 -7 -4 -13 -2 -13 3 0 6 -5 11 -11 11 -8 0 -8 -4 0 -14 9 -11 8 -15 -4 -20
-9 -3 -13 -11 -9 -17 5 -8 3 -9 -6 -4 -7 4 -16 2 -22 -6 -8 -11 -8 -10 -4 4 8
25 -4 44 -15 26 -7 -11 -9 -11 -9 2 0 17 -26 33 -39 25 -4 -3 -7 4 -7 14 0 11
6 22 13 24 7 3 10 -1 7 -9 -7 -16 31 -39 48 -29 7 5 8 3 3 -6 -6 -9 -4 -11 5
-5 9 6 11 4 5 -5 -6 -9 -4 -11 5 -5 9 6 11 4 5 -5 -5 -9 -4 -11 4 -6 8 5 7 13
-3 28 -8 11 -12 28 -10 37 3 9 -1 6 -8 -6 -10 -17 -17 -19 -31 -12 -13 8 -15
14 -7 29 9 16 8 18 -6 13 -13 -5 -15 -3 -9 8 5 8 -4 3 -18 -10 -15 -13 -24
-28 -20 -34 3 -6 1 -7 -6 -3 -6 4 -9 11 -6 16 3 4 -2 13 -10 20 -11 9 -12 17
-4 32 8 15 8 19 0 14 -6 -4 -11 -2 -11 5 0 7 -4 8 -12 2 -34 -26 -87 4 -57 31
9 8 10 8 6 0 -4 -7 0 -11 11 -10 10 0 16 -5 14 -14 -3 -12 -1 -13 10 -2 11 11
10 14 -1 21 -8 5 -11 15 -8 23 3 8 -1 15 -8 15 -7 0 -11 -7 -8 -16 4 -12 1
-12 -10 2 -14 17 -17 18 -41 2 -16 -11 -23 -23 -19 -33 4 -14 3 -15 -5 -2 -8
10 -7 19 1 29 10 11 8 13 -11 7 -14 -5 -22 -3 -22 4 0 7 -6 10 -14 7 -16 -6
-40 16 -29 26 3 4 3 7 -2 7 -4 0 -14 -8 -22 -17 -7 -10 -13 -13 -12 -8 4 27
-2 33 -28 29 -15 -3 -25 -4 -23 -2 3 2 14 10 24 18 11 8 17 10 13 3 -5 -8 -1
-11 13 -8 11 2 18 0 15 -5 -3 -6 0 -7 8 -4 8 3 20 -2 27 -10 7 -9 16 -13 21
-10 5 3 9 0 9 -7 0 -7 3 -9 6 -6 4 3 15 2 25 -3 12 -7 20 -6 25 2 4 6 3 8 -3
5 -6 -4 -13 0 -17 8 -3 9 -12 12 -22 8 -13 -5 -15 -3 -9 8 7 11 6 12 -6 3 -11
-9 -17 -9 -26 1 -6 7 -9 16 -5 19 3 4 -2 4 -13 1 -20 -7 -20 -6 0 9 19 16 19
16 -5 12 -14 -2 -25 -5 -25 -6 0 -1 -11 -4 -60 -14 -5 -1 -16 -5 -23 -10 -22
-13 -27 3 -7 22 10 9 15 12 12 6 -3 -6 0 -11 8 -11 11 0 10 7 -5 27 -11 15
-17 30 -15 34 3 3 0 2 -7 -4 -6 -5 -12 -20 -13 -32 -1 -17 -8 -23 -26 -24 -30
0 -69 16 -69 29 0 5 8 3 17 -4 14 -12 16 -12 8 0 -6 10 -4 12 5 6 9 -6 11 -4
5 4 -6 10 -3 11 14 1 13 -6 19 -16 15 -23 -4 -7 -3 -8 1 -4 5 4 10 15 11 23 1
9 0 13 -3 10 -4 -3 -12 -1 -20 5 -10 9 -17 8 -30 -2 -15 -12 -16 -12 -10 3 3
10 2 20 -4 23 -5 4 -8 1 -7 -5 2 -6 -8 -19 -22 -28 l-25 -16 19 22 c11 12 16
25 13 29 -4 3 -7 1 -7 -6 0 -8 -6 -11 -16 -7 -10 4 -13 2 -8 -6 5 -7 0 -9 -14
-6 -12 4 -25 2 -28 -3 -3 -5 -9 -7 -14 -4 -5 3 -10 -2 -12 -10 -2 -10 -7 -7
-15 10 -6 14 -7 23 -2 19 5 -3 9 1 9 8 0 8 3 9 8 3 8 -11 52 -16 52 -6 0 3 -9
12 -21 19 -15 10 -19 10 -14 1 5 -7 3 -10 -6 -7 -8 3 -22 1 -32 -4 -12 -6 -19
-5 -23 7 -5 11 -10 13 -19 5 -10 -8 -16 -7 -24 7 -6 11 -11 13 -11 5 0 -7 -4
-11 -9 -7 -5 3 -13 0 -17 -6 -5 -9 -11 -7 -19 5 -11 15 -13 15 -19 1 -4 -11
-2 -14 7 -9 8 5 7 2 -2 -9 -7 -10 -9 -17 -3 -17 6 0 13 5 15 10 3 6 4 5 3 -2
-2 -8 -19 -13 -45 -14 -24 0 -36 3 -29 7 7 4 9 11 5 15 -4 4 -2 13 5 21 8 11
7 12 -6 7 -10 -4 -15 -13 -12 -21 3 -8 2 -12 -3 -9 -20 13 -18 -24 2 -38 22
-16 22 -16 -3 -4 -14 7 -28 11 -32 10 -5 -1 -8 4 -8 11 0 8 -4 7 -11 -3 -9
-13 -10 -13 -6 0 2 8 11 14 21 12 20 -4 20 7 -1 33 -12 16 -14 17 -10 3z m-63
-28 c-9 -5 -9 -9 -1 -14 16 -10 13 -23 -6 -31 -14 -5 -15 -4 -6 6 9 9 9 16 2
25 -13 15 -2 37 13 28 7 -4 6 -9 -2 -14z m258 0 c4 -10 6 -10 12 0 4 7 13 9
19 5 9 -5 9 -11 -1 -23 -11 -13 -11 -15 3 -10 9 4 16 1 16 -7 0 -18 -31 -3
-50 25 -8 11 -17 17 -20 13 -4 -3 -2 -11 3 -18 7 -8 5 -12 -5 -12 -8 0 -12 4
-9 8 2 4 -1 9 -8 11 -17 6 -1 27 19 24 9 -2 19 -8 21 -16z m-322 -33 c1 -7 -6
-13 -16 -13 -15 0 -19 18 -11 46 2 8 25 -20 27 -33z m274 -2 c0 -7 -30 -13
-34 -7 -3 4 4 9 15 9 10 1 19 0 19 -2z m191 -12 c12 -16 12 -17 -2 -6 -9 7
-19 10 -22 6 -4 -3 -7 -1 -7 5 0 17 16 15 31 -5z m169 7 c0 -5 -4 -10 -10 -10
-5 0 -10 5 -10 10 0 6 5 10 10 10 6 0 10 -4 10 -10z m-808 -28 c-7 -2 -10 -8
-6 -13 3 -5 0 -9 -5 -9 -13 0 -13 3 -5 24 3 9 11 13 17 9 8 -5 7 -8 -1 -11z
m93 -12 c-3 -5 -12 -10 -18 -10 -7 0 -6 4 3 10 19 12 23 12 15 0z m-135 -34
c0 -2 -8 -10 -17 -17 -16 -13 -17 -12 -4 4 13 16 21 21 21 13z m1088 -56 c-9
-13 -14 -16 -20 -7 -8 13 10 39 23 31 5 -3 3 -14 -3 -24z m-1274 -1 c-3 -6 4
-7 19 -4 14 4 27 3 30 -2 3 -4 -6 -9 -19 -10 -57 -6 -64 -8 -64 -20 0 -8 7
-10 18 -6 9 3 14 3 10 -1 -3 -4 -12 -8 -20 -10 -7 -1 -18 -5 -25 -9 -7 -4 -6
5 4 24 8 17 21 33 29 36 8 3 11 10 7 16 -3 6 -1 7 6 3 6 -4 9 -12 5 -17z m-75
-69 c11 -23 11 -23 -3 -6 -9 11 -20 15 -28 10 -10 -6 -10 -4 1 9 8 10 15 16
16 15 1 -2 8 -14 14 -28z m1426 20 c-3 -5 -12 -10 -18 -10 -7 0 -6 4 3 10 19
12 23 12 15 0z m-1525 -54 c0 -2 -8 -10 -17 -17 -16 -13 -17 -12 -4 4 13 16
21 21 21 13z m-30 -100 c0 -2 -7 -7 -16 -10 -8 -3 -12 -2 -9 4 6 10 25 14 25
6z m-70 -16 c0 -5 -5 -10 -11 -10 -5 0 -7 5 -4 10 3 6 8 10 11 10 2 0 4 -4 4
-10z m-156 -255 c-4 -8 -8 -15 -10 -15 -2 0 -4 7 -4 15 0 8 4 15 10 15 5 0 7
-7 4 -15z m-31 -26 c-4 -15 -8 -17 -14 -8 -6 11 4 28 18 29 0 0 -1 -9 -4 -21z
m-13 -85 c0 -8 -19 -13 -24 -6 -3 5 1 9 9 9 8 0 15 -2 15 -3z m-60 -118 c0 -3
-4 -8 -10 -11 -5 -3 -10 -1 -10 4 0 6 5 11 10 11 6 0 10 -2 10 -4z m-58 -83
c1 -4 8 -14 17 -21 9 -7 12 -12 6 -11 -33 4 -45 -15 -20 -33 6 -5 5 -8 -3 -8
-7 0 -11 -4 -8 -8 3 -5 -1 -9 -8 -9 -15 0 -15 39 1 58 6 8 9 22 7 32 -1 11 0
17 3 14 2 -3 5 -9 5 -14z m45 -730 c-4 -3 -2 -13 5 -20 9 -11 9 -16 -2 -23
-18 -11 -33 -2 -23 13 4 7 8 15 9 20 3 15 4 17 11 17 3 0 3 -3 0 -7z m39 -49
c1 -9 0 -13 -4 -10 -3 4 -7 14 -8 22 -1 9 0 13 4 10 3 -4 7 -14 8 -22z m-19
-30 c-9 -9 -28 6 -21 18 4 6 10 6 17 -1 6 -6 8 -13 4 -17z m38 -14 c3 -6 -1
-7 -9 -4 -18 7 -21 14 -7 14 6 0 13 -4 16 -10z m-15 -21 c0 -14 -17 -10 -23 5
-4 10 -1 13 9 9 7 -3 14 -9 14 -14z m139 -203 c-3 -3 -11 5 -18 17 -13 21 -12
21 5 5 10 -10 16 -20 13 -22z"/>
<path d="M1347 7987 c-7 -19 8 -43 17 -28 4 6 1 11 -6 11 -10 0 -10 2 1 9 8 5
9 11 3 15 -5 3 -12 0 -15 -7z"/>
<path d="M1595 7990 c-4 -6 1 -7 11 -3 13 5 15 3 9 -7 -5 -9 -4 -11 4 -6 6 4
9 12 6 17 -8 12 -22 12 -30 -1z"/>
<path d="M1696 7987 c3 -10 9 -15 12 -12 3 3 0 11 -7 18 -10 9 -11 8 -5 -6z"/>
<path d="M1016 7977 c3 -10 9 -15 12 -12 3 3 0 11 -7 18 -10 9 -11 8 -5 -6z"/>
<path d="M1734 7982 c3 -6 -2 -15 -11 -21 -16 -9 -16 -10 -2 -11 20 0 33 27
17 36 -6 4 -8 3 -4 -4z"/>
<path d="M1795 7949 c-4 -6 -5 -12 -2 -15 2 -3 7 2 10 11 7 17 1 20 -8 4z"/>
<path d="M873 7927 c0 -7 9 -14 19 -14 10 -1 18 3 18 9 0 6 -3 8 -7 5 -3 -4
-11 -2 -18 3 -8 7 -12 6 -12 -3z"/>
<path d="M1805 7921 c-6 -11 9 -23 19 -14 9 9 7 23 -3 23 -6 0 -12 -4 -16 -9z"/>
<path d="M1690 7909 c0 -5 5 -7 10 -4 6 3 10 8 10 11 0 2 -4 4 -10 4 -5 0 -10
-5 -10 -11z"/>
<path d="M1917 7903 c-10 -9 -9 -23 1 -23 5 0 9 7 9 15 0 17 -1 18 -10 8z"/>
<path d="M810 7875 c0 -8 4 -15 10 -15 5 0 7 7 4 15 -4 8 -8 15 -10 15 -2 0
-4 -7 -4 -15z"/>
<path d="M1974 7863 c4 -4 16 -8 28 -10 28 -4 18 6 -12 12 -12 2 -20 1 -16 -2z"/>
<path d="M686 7842 c-3 -5 1 -9 9 -9 8 0 12 4 9 9 -3 4 -7 8 -9 8 -2 0 -6 -4
-9 -8z"/>
<path d="M740 7840 c0 -5 5 -10 11 -10 5 0 7 5 4 10 -3 6 -8 10 -11 10 -2 0
-4 -4 -4 -10z"/>
<path d="M2095 7810 c-4 -6 -11 -8 -16 -5 -5 3 -6 -1 -3 -10 4 -9 7 -15 8 -13
1 2 8 11 15 21 7 9 11 17 8 17 -3 0 -9 -5 -12 -10z"/>
<path d="M2114 7791 c4 -5 0 -11 -6 -14 -7 -3 -3 -4 9 -4 17 1 19 4 11 14 -12
15 -22 18 -14 4z"/>
<path d="M2030 7769 c0 -5 5 -7 10 -4 6 3 10 8 10 11 0 2 -4 4 -10 4 -5 0 -10
-5 -10 -11z"/>
<path d="M601 7754 c0 -11 3 -14 6 -6 3 7 2 16 -1 19 -3 4 -6 -2 -5 -13z"/>
<path d="M2111 7736 c-9 -10 -8 -16 4 -26 14 -11 19 -7 16 13 0 4 4 7 10 7 5
0 7 5 4 10 -9 14 -20 13 -34 -4z m16 -11 c0 -8 -4 -12 -9 -9 -5 3 -6 10 -3 15
9 13 12 11 12 -6z"/>
<path d="M2174 7743 c3 -4 18 -8 32 -9 14 -2 24 0 20 3 -3 3 -17 7 -32 9 -14
1 -23 0 -20 -3z"/>
<path d="M2190 7689 c0 -5 5 -7 10 -4 6 3 10 8 10 11 0 2 -4 4 -10 4 -5 0 -10
-5 -10 -11z"/>
<path d="M2246 7682 c-3 -5 1 -9 9 -9 8 0 12 4 9 9 -3 4 -7 8 -9 8 -2 0 -6 -4
-9 -8z"/>
<path d="M395 7621 c-3 -5 -2 -12 3 -15 5 -3 9 1 9 9 0 17 -3 19 -12 6z"/>
<path d="M315 7510 c-4 -6 -12 -7 -18 -4 -7 4 -9 3 -4 -1 4 -5 18 -10 30 -11
12 -2 16 0 9 2 -6 3 -10 10 -6 15 3 5 3 9 0 9 -3 0 -8 -5 -11 -10z"/>
<path d="M260 7414 c0 -6 7 -19 16 -30 14 -18 14 -18 3 6 -14 31 -19 36 -19
24z"/>
<path d="M193 7303 c4 -3 1 -13 -6 -22 -11 -14 -10 -14 6 -2 20 15 22 31 5 31
-6 0 -8 -3 -5 -7z"/>
<path d="M155 7271 c-3 -5 -2 -12 3 -15 5 -3 9 1 9 9 0 17 -3 19 -12 6z"/>
<path d="M106 7218 c3 -5 10 -6 15 -3 13 9 11 12 -6 12 -8 0 -12 -4 -9 -9z"/>
<path d="M150 7200 c0 -5 5 -10 11 -10 5 0 7 5 4 10 -3 6 -8 10 -11 10 -2 0
-4 -4 -4 -10z"/>
<path d="M140 7169 c0 -6 -6 -9 -13 -6 -8 3 -14 -1 -14 -8 0 -10 5 -11 19 -4
16 9 25 29 13 29 -3 0 -5 -5 -5 -11z"/>
<path d="M115 7120 c-3 -6 1 -7 9 -4 18 7 21 14 7 14 -6 0 -13 -4 -16 -10z"/>
<path d="M105 7029 c-4 -6 -5 -12 -2 -15 2 -3 7 2 10 11 7 17 1 20 -8 4z"/>
<path d="M79 7028 c-6 -21 -5 -38 1 -38 5 0 8 9 7 20 -1 17 -5 26 -8 18z"/>
<path d="M73 6915 c0 -8 4 -15 9 -15 4 0 8 4 8 9 0 6 -4 12 -8 15 -5 3 -9 -1
-9 -9z"/>
<path d="M30 6881 c0 -6 4 -12 8 -15 5 -3 9 1 9 9 0 8 -4 15 -9 15 -4 0 -8 -4
-8 -9z"/>
<path d="M70 6849 c0 -5 5 -7 12 -3 7 5 9 2 6 -8 -4 -8 0 -15 7 -15 16 0 15
18 0 29 -14 11 -25 10 -25 -3z"/>
<path d="M35 6840 c-3 -5 -1 -10 4 -10 6 0 11 5 11 10 0 6 -2 10 -4 10 -3 0
-8 -4 -11 -10z"/>
<path d="M24 6802 c4 -3 14 -7 22 -8 9 -1 13 0 10 4 -4 3 -14 7 -22 8 -9 1
-13 0 -10 -4z"/>
<path d="M58 6722 c-3 -12 -2 -20 3 -16 9 5 13 -9 10 -33 -1 -7 3 -13 9 -13
15 0 8 -24 -10 -32 -12 -5 -12 -7 3 -7 9 -1 17 -8 17 -17 0 -8 5 -12 10 -9 8
5 7 11 -1 21 -8 10 -8 14 0 14 15 0 14 16 -3 33 -10 10 -12 17 -4 25 12 12 1
35 -12 27 -5 -3 -10 3 -12 12 -3 15 -5 14 -10 -5z"/>
<path d="M10 6699 c0 -5 5 -7 10 -4 6 3 10 8 10 11 0 2 -4 4 -10 4 -5 0 -10
-5 -10 -11z"/>
<path d="M36 6638 c3 -4 11 -5 19 -1 21 7 19 12 -4 10 -11 0 -18 -5 -15 -9z"/>
<path d="M56 6557 c3 -10 9 -15 12 -12 3 3 0 11 -7 18 -10 9 -11 8 -5 -6z"/>
<path d="M35 6540 c3 -5 8 -10 11 -10 2 0 4 5 4 10 0 6 -5 10 -11 10 -5 0 -7
-4 -4 -10z"/>
<path d="M131 6304 c-6 -14 -16 -22 -21 -19 -6 3 -10 1 -10 -4 0 -6 7 -11 15
-11 8 0 15 5 15 11 0 5 4 8 8 5 4 -2 14 0 22 6 12 8 12 9 -2 4 -10 -3 -18 -1
-18 3 0 5 5 11 12 13 8 3 9 6 1 11 -5 3 -15 -5 -22 -19z"/>
<path d="M95 6310 c-3 -6 1 -7 9 -4 18 7 21 14 7 14 -6 0 -13 -4 -16 -10z"/>
<path d="M142 6200 c0 -14 2 -19 5 -12 2 6 2 18 0 25 -3 6 -5 1 -5 -13z"/>
<path d="M221 6096 c-13 -16 -5 -24 29 -31 25 -5 26 7 1 29 -16 14 -20 15 -30
2z m28 -19 c0 -9 -2 -8 -6 1 -2 6 -10 9 -15 6 -7 -4 -8 -2 -4 5 9 13 26 5 25
-12z"/>
<path d="M195 6060 c2 -27 10 -33 12 -10 1 11 -2 22 -6 24 -4 3 -7 -4 -6 -14z"/>
<path d="M195 6009 c-4 -6 -5 -12 -2 -15 2 -3 7 2 10 11 7 17 1 20 -8 4z"/>
<path d="M268 5973 c6 -2 9 -10 5 -16 -4 -7 1 -6 10 2 10 8 21 10 25 6 4 -4 1
-10 -5 -12 -7 -3 -13 -10 -13 -16 0 -8 4 -7 12 1 7 7 17 12 22 12 6 0 5 -5 -2
-12 -17 -17 -15 -31 3 -24 8 3 19 -2 24 -12 7 -11 13 -14 20 -7 16 17 -46 77
-83 81 -17 1 -25 0 -18 -3z m88 -55 c19 -23 19 -23 -2 -5 -11 9 -24 14 -29 10
-4 -5 -5 -2 -1 5 9 16 10 16 32 -10z"/>
</g>
</svg>
