<svg xmlns="http://www.w3.org/2000/svg" width="800" height="800" viewBox="0 0 800 800" version="1.1">
	<path d="M 375.978 0.309 C 375.715 0.546, 371.225 1.042, 366 1.411 C 343.400 3.009, 309.140 9.321, 288.500 15.690 C 261.815 23.925, 224 39.121, 224 41.609 C 224 41.931, 226.732 45.175, 230.070 48.818 C 240.283 59.963, 250.018 76.326, 254.572 90 C 255.579 93.025, 256.743 95.908, 257.158 96.406 C 257.574 96.906, 260.282 95.484, 263.206 93.231 C 268.846 88.883, 279.358 83, 281.485 83 C 282.310 83, 281.444 85.636, 279.062 90.376 C 271.423 105.583, 268.413 120.151, 269.327 137.500 C 270.039 151.031, 271.964 158.846, 277.456 170.500 C 282.552 181.315, 289.049 190.131, 297.487 197.678 L 303.742 203.273 291.121 213.313 C 272.108 228.437, 238.857 262.498, 233.150 272.696 C 231.720 275.253, 228.463 273.384, 219.484 264.855 C 212.399 258.124, 202 243.516, 202 240.292 C 202 238.310, 200.588 238.683, 192.228 242.871 C 163.750 257.138, 129.392 259.553, 98.476 249.460 C 82.399 244.213, 66.103 234.576, 53.672 222.967 C 49.569 219.135, 45.943 216, 45.615 216 C 43.844 216, 29.690 247.373, 22.981 266.170 C -25.405 401.740, 4.214 555.601, 99.566 664 C 139.747 709.678, 192.487 747.328, 248 769.963 C 253.775 772.317, 259.400 774.628, 260.500 775.098 C 261.600 775.568, 268.585 777.943, 276.022 780.375 C 305.218 789.921, 338.168 796.514, 368 798.779 C 380.348 799.716, 422.086 799.708, 433 798.767 C 509.275 792.185, 581.518 764.499, 642 718.670 C 714.362 663.840, 767.259 583.276, 788.531 495.500 C 792.919 477.394, 796.536 456.586, 797.919 441.500 C 798.524 434.900, 799.503 425.900, 800.094 421.500 C 802.699 402.102, 799.121 355.713, 792.420 322 C 769.355 205.955, 696.299 106.357, 592.255 49.115 C 582.657 43.834, 571.477 38.329, 558.413 32.450 C 542.101 25.110, 509.397 14.445, 488.146 9.537 C 478.384 7.282, 455.522 3.592, 438.500 1.525 C 432.428 0.788, 376.650 -0.297, 375.978 0.309 M 394.045 234.194 C 382.316 243.987, 372.108 252, 371.361 252 C 370.614 252, 365.390 248.691, 359.751 244.647 C 331.932 224.695, 323.316 218.666, 321.281 217.729 C 319.584 216.948, 317.898 217.191, 314.113 218.764 C 307.673 221.441, 294.210 230.458, 286 237.594 C 282.425 240.702, 276.575 245.761, 273 248.838 C 263.314 257.175, 251.204 269.552, 244.549 277.917 C 239.634 284.095, 238.636 286.007, 238.574 289.360 C 238.490 293.940, 236.697 292.474, 270.799 315.712 C 303.671 338.113, 313.407 344.977, 314.123 346.255 C 314.879 347.606, 313.336 350.087, 298.348 371.609 C 293.410 378.699, 284.829 391.025, 279.277 399 C 264.043 420.887, 248.198 447.831, 242.602 461.368 L 241.004 465.236 246.252 464.699 C 249.138 464.404, 264.958 461.857, 281.407 459.038 C 299.985 455.855, 311.669 454.269, 312.250 454.850 C 312.832 455.432, 312.625 456.679, 311.705 458.143 C 309.283 461.997, 284.627 517.960, 285.129 518.463 C 285.566 518.900, 290.803 516.989, 328 502.817 C 364.902 488.759, 368.069 487.669, 369.088 488.688 C 369.773 489.373, 368.775 502.936, 366.007 530.549 C 363.755 553.015, 362.045 572.218, 362.206 573.223 C 362.460 574.801, 363.457 574.439, 369.500 570.571 C 373.350 568.107, 379.875 564.016, 384 561.480 C 388.125 558.943, 396 553.961, 401.500 550.409 C 413.926 542.382, 419.319 539.490, 419.746 540.624 C 432.601 574.734, 435.872 582.534, 437.449 582.843 C 440.354 583.411, 478.512 543.706, 492.574 525.484 C 499.089 517.040, 513.949 496.160, 518.538 489 C 521.182 484.875, 525.296 478.992, 527.681 475.927 L 532.016 470.355 539.126 470.164 C 543.036 470.059, 546.520 469.806, 546.868 469.601 C 547.215 469.397, 551.550 468.930, 556.500 468.564 C 561.450 468.197, 569.100 467.492, 573.500 466.998 C 577.900 466.503, 585.100 465.815, 589.500 465.469 C 593.900 465.124, 598.850 464.570, 600.500 464.239 C 602.150 463.909, 604.908 463.607, 606.629 463.569 C 609.716 463.501, 609.765 463.419, 610.320 457.471 C 611.392 445.993, 621.456 423.483, 635.949 400.148 C 639.827 393.904, 642.980 388.504, 642.956 388.148 C 642.932 387.791, 637.271 383.225, 630.377 378 C 623.482 372.775, 616.640 367.521, 615.171 366.326 C 613.702 365.130, 606.875 359.827, 600 354.542 C 584.994 343.006, 581.381 340.175, 578.057 337.348 L 575.527 335.196 578.896 311.348 C 580.749 298.232, 583.149 283.966, 584.230 279.647 C 585.557 274.340, 585.866 271.466, 585.180 270.780 C 584.623 270.223, 575.016 266.949, 563.833 263.505 C 512.039 247.557, 501.171 244.109, 466.500 232.626 C 446.150 225.886, 426.321 219.476, 422.436 218.380 L 415.372 216.389 394.045 234.194 M 343.198 288.804 C 339.309 289.027, 337.731 289.560, 337.276 290.804 C 336.935 291.737, 335.017 294.975, 333.014 298 C 331.011 301.025, 328.381 305.139, 327.171 307.142 L 324.970 310.785 337.208 318.642 C 343.940 322.964, 350.359 326.992, 351.473 327.594 C 352.588 328.196, 362.355 334.384, 373.177 341.344 C 383.999 348.305, 393.338 354, 393.930 354 C 394.954 354, 402.156 346.656, 402.812 344.943 C 402.983 344.495, 393.623 331.477, 382.010 316.013 L 360.896 287.898 354.698 288.199 C 351.289 288.365, 346.114 288.637, 343.198 288.804 M 465.697 337.436 C 459.118 339.332, 450.484 344.691, 446.263 349.500 C 444.331 351.700, 441.345 356.425, 439.626 360 C 436.704 366.076, 436.501 367.217, 436.515 377.500 C 436.528 387.772, 436.741 388.950, 439.727 395.305 C 445.702 408.020, 459.280 418.876, 473 421.907 C 479.736 423.395, 491.660 422.528, 498 420.088 C 509.083 415.823, 517.700 407.229, 522.152 396 C 525.176 388.373, 525.154 374.846, 522.105 366.881 C 517.442 354.698, 506.322 343.552, 494.243 338.951 C 486.991 336.189, 472.665 335.428, 465.697 337.436 M 764.701 359 C 764.401 359.825, 763.384 362.975, 762.441 366 C 758.687 378.045, 751.677 386.354, 740.998 391.419 C 727.386 397.875, 719.407 398.148, 696 392.961 C 683.497 390.190, 663.841 381.823, 650.211 373.469 L 645.923 370.841 649.652 376.670 C 655.794 386.271, 657.321 391.263, 657.398 402 C 657.451 409.374, 656.949 413.067, 655.156 418.500 C 652.129 427.670, 644.153 442.894, 635.107 456.768 C 631.106 462.903, 628.101 468.355, 628.428 468.883 C 629.822 471.139, 647.468 473.879, 662.500 474.174 C 670.290 474.327, 670 474.558, 670 468.200 C 670 465.010, 669.505 461.905, 668.901 461.301 C 668.296 460.696, 668.101 459.256, 668.468 458.101 C 668.972 456.511, 669.959 456, 672.520 456 C 679.579 456, 683.853 460.369, 685.528 469.297 C 686.155 472.639, 686.529 472.998, 689.361 472.983 C 697.251 472.939, 717.702 468.643, 728 464.867 C 742.841 459.425, 753.934 449.510, 761.415 435 C 766.983 424.201, 769.551 415.783, 771.126 403.170 C 772.201 394.554, 772.141 391.224, 770.701 379.513 C 769.089 366.405, 765.933 355.615, 764.701 359 M 0.422 400 C 0.422 411.275, 0.568 415.887, 0.746 410.250 C 0.924 404.613, 0.924 395.387, 0.746 389.750 C 0.568 384.113, 0.422 388.725, 0.422 400 M 234 394.332 C 230.425 395.616, 225.475 397.701, 223 398.967 C 216.987 402.041, 190.774 419.362, 189.122 421.353 C 188.024 422.676, 188.154 423.407, 189.926 425.896 C 194.396 432.174, 213.715 444.846, 219.779 445.477 L 223.761 445.892 234.394 420.406 C 240.242 406.389, 245.133 394.376, 245.263 393.710 C 245.670 391.631, 240.768 391.902, 234 394.332 M 400.500 409.229 C 396.700 411.973, 384.999 422.059, 378.583 428.121 C 374.735 431.758, 373.667 433.446, 373.667 435.892 C 373.667 442.272, 381.876 446.936, 390.363 445.378 C 392.638 444.960, 394.950 444.567, 395.500 444.504 C 396.050 444.441, 399.258 446.768, 402.630 449.674 C 411.307 457.154, 416.027 458.589, 421.923 455.540 C 425.439 453.722, 426.305 450.665, 424.516 446.384 C 423.757 444.568, 422.404 439.173, 421.509 434.395 C 419.514 423.751, 417.293 417.740, 413.107 411.656 C 410.405 407.729, 409.403 407.005, 406.702 407.032 C 404.941 407.049, 402.150 408.038, 400.500 409.229 M 174.500 432.656 C 172.300 434.641, 169.084 437.348, 167.354 438.672 C 163.589 441.552, 163.786 443.413, 168.551 450 C 172.596 455.592, 183.283 465.853, 188.149 468.816 C 193.485 472.066, 202.691 475, 207.550 475 L 211.787 475 214.505 468.250 C 216 464.538, 217.448 460.932, 217.723 460.239 C 218.041 459.437, 217.671 459.189, 216.709 459.558 C 210.771 461.837, 182.529 439.941, 180.385 431.397 C 180.054 430.079, 179.494 429.010, 179.142 429.023 C 178.789 429.036, 176.700 430.671, 174.500 432.656 M 142.359 462.250 C 132.105 472.750, 121.492 485.134, 117.677 491.049 C 116.065 493.548, 116.343 494.304, 131.635 529.049 C 140.217 548.547, 150.966 573.050, 155.524 583.500 C 160.081 593.950, 166.753 609.250, 170.352 617.500 C 173.950 625.750, 183.811 648.250, 192.266 667.500 L 207.638 702.500 220.569 702.401 C 234.296 702.295, 273.810 701.218, 290.500 700.494 C 296 700.255, 309.275 699.810, 320 699.505 C 346.155 698.761, 366.695 698.115, 383 697.525 C 390.425 697.256, 405.275 696.796, 416 696.502 C 441.081 695.815, 459.273 694.949, 460.161 694.400 C 460.546 694.163, 465.110 687.338, 470.303 679.234 C 497.858 636.236, 520.889 590.392, 527.062 566.259 C 529.052 558.475, 529.582 551.478, 528.244 550.651 C 527.828 550.394, 525.006 551.645, 521.973 553.431 C 518.939 555.217, 510.617 559.969, 503.479 563.991 C 496.340 568.013, 486 573.871, 480.500 577.010 C 465.391 585.631, 449.582 594.613, 428 606.837 C 417.275 612.912, 407.961 618.354, 407.303 618.931 C 406.528 619.610, 405.891 619.633, 405.497 618.995 C 404.969 618.141, 410.054 571.215, 411.645 562.250 C 412.303 558.546, 411.338 558.181, 407.885 560.829 C 406.573 561.834, 402.575 564.680, 399 567.151 C 395.425 569.623, 384.175 577.434, 374 584.509 C 348.056 602.549, 341.436 607, 340.545 607 C 339.625 607, 339.879 604.828, 345.575 564 C 347.992 546.675, 350.710 527.196, 351.614 520.712 C 352.518 514.229, 353.031 508.698, 352.754 508.420 C 352.476 508.143, 327.152 520.535, 296.477 535.958 C 265.802 551.381, 240.321 564, 239.852 564 C 238.336 564, 238.934 561.507, 242.388 553.426 C 253 528.601, 275.102 474.769, 274.805 474.472 C 274.480 474.146, 269.065 475.607, 226 487.641 C 206.237 493.164, 205.419 493.269, 205.738 490.250 C 205.951 488.243, 205.519 487.992, 201.738 487.926 C 189.342 487.708, 176.382 481.323, 165.784 470.212 C 160.426 464.595, 155 455.700, 155 452.533 C 155 451.690, 154.628 451, 154.173 451 C 153.718 451, 148.402 456.063, 142.359 462.250" stroke="none" fill="black" fill-rule="evenodd"/>
</svg>